<svg width="34" height="28" viewBox="0 0 34 28" fill="none" xmlns="http://www.w3.org/2000/svg">
<path d="M10.64 14.168C11.9307 14.696 12.928 15.5467 13.632 16.72C14.3947 17.8347 14.776 19.184 14.776 20.768C14.776 22.88 14.1013 24.6107 12.752 25.96C11.4027 27.3093 9.73067 27.984 7.736 27.984C5.624 27.984 3.89333 27.3093 2.544 25.96C1.19467 24.6107 0.52 22.88 0.52 20.768C0.52 19.712 0.637334 18.6853 0.872 17.688C1.16533 16.6907 1.69333 15.1947 2.456 13.2L7.12 0.703996H14.16L10.64 14.168ZM29.296 14.168C30.5867 14.696 31.584 15.5467 32.288 16.72C33.0507 17.8347 33.432 19.184 33.432 20.768C33.432 22.88 32.7573 24.6107 31.408 25.96C30.0587 27.3093 28.3867 27.984 26.392 27.984C24.28 27.984 22.5493 27.3093 21.2 25.96C19.8507 24.6107 19.176 22.88 19.176 20.768C19.176 19.712 19.2933 18.6853 19.528 17.688C19.8213 16.6907 20.3493 15.1947 21.112 13.2L25.776 0.703996H32.816L29.296 14.168Z" fill="#FFE2A4" fill-opacity="0.98"/>
</svg>
