<svg width="16" height="16" viewBox="0 0 16 16" fill="none" xmlns="http://www.w3.org/2000/svg">
<path d="M0.556641 1.60742L3.60352 0.904297C3.92578 0.816406 4.27734 0.992188 4.42383 1.31445L5.83008 4.5957C5.94727 4.88867 5.85938 5.21094 5.625 5.41602L3.83789 6.88086C4.89258 9.10742 6.73828 10.9824 9.02344 12.0664L10.4883 10.2793C10.6934 10.0449 11.0156 9.95703 11.3086 10.0742L14.5898 11.4805C14.9121 11.627 15.0586 11.9785 15 12.3008L14.2969 15.3477C14.209 15.6699 13.9453 15.875 13.5938 15.875C6.09375 15.875 0 9.81055 0 2.28125C0 1.95898 0.234375 1.69531 0.556641 1.60742Z" fill="#969696"/>
</svg>
