<svg width="14" height="16" viewBox="0 0 14 16" fill="none" xmlns="http://www.w3.org/2000/svg">
<path d="M7 8.375C9.05078 8.375 10.75 6.70508 10.75 4.625C10.75 2.57422 9.05078 0.875 7 0.875C4.91992 0.875 3.25 2.57422 3.25 4.625C3.25 6.70508 4.91992 8.375 7 8.375ZM9.60742 9.3125H9.10938C8.46484 9.63477 7.76172 9.78125 7 9.78125C6.23828 9.78125 5.50586 9.63477 4.86133 9.3125H4.36328C2.19531 9.3125 0.4375 11.0996 0.4375 13.2676V14.4688C0.4375 15.2598 1.05273 15.875 1.84375 15.875H12.1562C12.918 15.875 13.5625 15.2598 13.5625 14.4688V13.2676C13.5625 11.0996 11.7754 9.3125 9.60742 9.3125Z" fill="#969696"/>
</svg>
