<svg width="59" height="36" viewBox="0 0 59 36" fill="none" xmlns="http://www.w3.org/2000/svg">
<path d="M15.272 35.576C12.488 35.576 10.008 34.888 7.832 33.512C5.656 32.136 3.944 30.152 2.696 27.56C1.48 24.936 0.872 21.816 0.872 18.2C0.872 14.584 1.48 11.48 2.696 8.888C3.944 6.264 5.656 4.264 7.832 2.888C10.008 1.512 12.488 0.823999 15.272 0.823999C18.056 0.823999 20.536 1.512 22.712 2.888C24.888 4.264 26.584 6.264 27.8 8.888C29.048 11.48 29.672 14.584 29.672 18.2C29.672 21.816 29.048 24.936 27.8 27.56C26.584 30.152 24.888 32.136 22.712 33.512C20.536 34.888 18.056 35.576 15.272 35.576ZM15.272 29C17.32 29 18.92 28.12 20.072 26.36C21.256 24.6 21.848 21.88 21.848 18.2C21.848 14.52 21.256 11.8 20.072 10.04C18.92 8.28 17.32 7.4 15.272 7.4C13.256 7.4 11.656 8.28 10.472 10.04C9.32 11.8 8.744 14.52 8.744 18.2C8.744 21.88 9.32 24.6 10.472 26.36C11.656 28.12 13.256 29 15.272 29ZM58.2729 28.664V35H32.8809V29.96L45.8409 17.72C47.2169 16.408 48.1449 15.288 48.6249 14.36C49.1049 13.4 49.3449 12.456 49.3449 11.528C49.3449 10.184 48.8809 9.16 47.9529 8.456C47.0569 7.72 45.7289 7.352 43.9689 7.352C42.4969 7.352 41.1689 7.64 39.9849 8.216C38.8009 8.76 37.8089 9.592 37.0089 10.712L31.3449 7.064C32.6569 5.112 34.4649 3.592 36.7689 2.504C39.0729 1.384 41.7129 0.823999 44.6889 0.823999C47.1849 0.823999 49.3609 1.24 51.2169 2.072C53.1049 2.872 54.5609 4.024 55.5849 5.528C56.6409 7 57.1689 8.744 57.1689 10.76C57.1689 12.584 56.7849 14.296 56.0169 15.896C55.2489 17.496 53.7609 19.32 51.5529 21.368L43.8249 28.664H58.2729Z" fill="url(#paint0_linear)"/>
<defs>
<linearGradient id="paint0_linear" x1="-1" y1="-26.3444" x2="44.6784" y2="-7.6042" gradientUnits="userSpaceOnUse">
<stop stop-color="#FFD886"/>
<stop offset="1" stop-color="#FFC344"/>
</linearGradient>
</defs>
</svg>
