<svg width="58" height="36" viewBox="0 0 58 36" fill="none" xmlns="http://www.w3.org/2000/svg">
<path d="M15.272 35.576C12.488 35.576 10.008 34.888 7.832 33.512C5.656 32.136 3.944 30.152 2.696 27.56C1.48 24.936 0.872 21.816 0.872 18.2C0.872 14.584 1.48 11.48 2.696 8.888C3.944 6.264 5.656 4.264 7.832 2.888C10.008 1.512 12.488 0.823999 15.272 0.823999C18.056 0.823999 20.536 1.512 22.712 2.888C24.888 4.264 26.584 6.264 27.8 8.888C29.048 11.48 29.672 14.584 29.672 18.2C29.672 21.816 29.048 24.936 27.8 27.56C26.584 30.152 24.888 32.136 22.712 33.512C20.536 34.888 18.056 35.576 15.272 35.576ZM15.272 29C17.32 29 18.92 28.12 20.072 26.36C21.256 24.6 21.848 21.88 21.848 18.2C21.848 14.52 21.256 11.8 20.072 10.04C18.92 8.28 17.32 7.4 15.272 7.4C13.256 7.4 11.656 8.28 10.472 10.04C9.32 11.8 8.744 14.52 8.744 18.2C8.744 21.88 9.32 24.6 10.472 26.36C11.656 28.12 13.256 29 15.272 29ZM48.6774 15.08C51.6214 15.56 53.8774 16.664 55.4454 18.392C57.0134 20.088 57.7974 22.2 57.7974 24.728C57.7974 26.68 57.2854 28.488 56.2614 30.152C55.2374 31.784 53.6694 33.096 51.5574 34.088C49.4774 35.08 46.9174 35.576 43.8774 35.576C41.5094 35.576 39.1734 35.272 36.8694 34.664C34.5974 34.024 32.6614 33.128 31.0614 31.976L34.0854 26.024C35.3654 26.984 36.8374 27.736 38.5014 28.28C40.1974 28.792 41.9254 29.048 43.6854 29.048C45.6374 29.048 47.1734 28.68 48.2934 27.944C49.4134 27.176 49.9734 26.104 49.9734 24.728C49.9734 21.976 47.8774 20.6 43.6854 20.6H40.1334V15.464L47.0454 7.64H32.7414V1.4H56.2614V6.44L48.6774 15.08Z" fill="url(#paint0_linear)"/>
<defs>
<linearGradient id="paint0_linear" x1="-1" y1="-26.3444" x2="44.6784" y2="-7.6042" gradientUnits="userSpaceOnUse">
<stop stop-color="#FFD886"/>
<stop offset="1" stop-color="#FFC344"/>
</linearGradient>
</defs>
</svg>
