<svg width="22" height="24" viewBox="0 0 22 24" fill="none" xmlns="http://www.w3.org/2000/svg">
<path opacity="0.38" d="M16.9004 8.85938C16.1035 7.5 14.3691 7.125 13.0566 7.92188C12.3066 6.9375 11.041 6.60938 9.96289 6.98438V2.85938C9.96289 1.3125 8.69727 0 7.15039 0C5.60352 0 4.33789 1.3125 4.33789 2.85938V11.3906C3.40039 10.7344 2.13477 10.7344 1.15039 11.4375C-0.115234 12.375 -0.349609 14.1094 0.541016 15.375L5.88477 22.875C6.40039 23.5781 7.24414 24 8.18164 24H16.8535C18.166 24 19.291 23.1094 19.5723 21.8438L20.9316 16.0781C20.9785 15.8438 21.0254 15.6562 21.0254 15.4219V11.3438C21.0254 9.23438 18.7285 7.875 16.9004 8.85938ZM3.86914 12.9375L5.18164 14.8125C5.18164 15 5.32227 15.1875 5.55664 15.1875C5.74414 15.1875 5.93164 15 5.93164 14.8125C5.93164 14.7188 5.88477 14.625 5.83789 14.5781V2.85938C5.83789 1.07812 8.46289 1.07812 8.46289 2.85938V11.3438C8.46289 11.5312 8.60352 11.7188 8.83789 11.7188H9.16602C9.35352 11.7188 9.54102 11.5312 9.54102 11.3438V9.65625C9.54102 7.875 12.1191 7.875 12.1191 9.65625V11.3438C12.1191 11.5312 12.3066 11.7188 12.4941 11.7188H12.8691C13.0566 11.7188 13.2441 11.5312 13.2441 11.3438V10.3125C13.2441 8.57812 15.8223 8.57812 15.8223 10.3125V11.3438C15.8223 11.5312 16.0098 11.7188 16.1973 11.7188H16.5254C16.7129 11.7188 16.9004 11.5312 16.9004 11.3438C16.9004 9.60938 19.5254 9.60938 19.5254 11.3438V15.4219C19.5254 15.5156 19.4785 15.6094 19.4785 15.7031L18.1191 21.5156C17.9785 22.125 17.4629 22.5 16.8535 22.5H8.18164C7.75977 22.5 7.33789 22.3125 7.10352 21.9844L1.75977 14.4844C0.728516 13.0312 2.88477 11.5781 3.86914 12.9375ZM8.46289 18.7969C8.46289 19.0312 8.60352 19.1719 8.83789 19.1719H9.16602C9.35352 19.1719 9.54102 19.0312 9.54102 18.7969V14.7188C9.54102 14.5312 9.35352 14.3438 9.16602 14.3438H8.83789C8.60352 14.3438 8.46289 14.5312 8.46289 14.7188V18.7969ZM12.1191 18.7969C12.1191 19.0312 12.3066 19.1719 12.4941 19.1719H12.8691C13.0566 19.1719 13.2441 19.0312 13.2441 18.7969V14.7188C13.2441 14.5312 13.0566 14.3438 12.8691 14.3438H12.4941C12.3066 14.3438 12.1191 14.5312 12.1191 14.7188V18.7969ZM15.8223 18.7969C15.8223 19.0312 16.0098 19.1719 16.1973 19.1719H16.5254C16.7129 19.1719 16.9004 19.0312 16.9004 18.7969V14.7188C16.9004 14.5312 16.7129 14.3438 16.5254 14.3438H16.1973C16.0098 14.3438 15.8223 14.5312 15.8223 14.7188V18.7969Z" fill="white"/>
</svg>
