<svg width="11" height="12" viewBox="0 0 11 12" fill="none" xmlns="http://www.w3.org/2000/svg">
<path d="M5.5 0.546875C2.55664 0.546875 0.171875 2.93164 0.171875 5.875C0.171875 8.81836 2.55664 11.2031 5.5 11.2031C8.44336 11.2031 10.8281 8.81836 10.8281 5.875C10.8281 2.93164 8.44336 0.546875 5.5 0.546875ZM5.5 10.1719C3.11523 10.1719 1.20312 8.25977 1.20312 5.875C1.20312 3.51172 3.11523 1.57812 5.5 1.57812C7.86328 1.57812 9.79688 3.51172 9.79688 5.875C9.79688 8.25977 7.86328 10.1719 5.5 10.1719ZM6.81055 7.9375C6.93945 8.02344 7.08984 8.00195 7.17578 7.87305L7.58398 7.33594C7.66992 7.20703 7.64844 7.05664 7.51953 6.9707L6.10156 5.91797V2.86719C6.10156 2.73828 5.97266 2.60938 5.84375 2.60938H5.15625C5.00586 2.60938 4.89844 2.73828 4.89844 2.86719V6.41211C4.89844 6.47656 4.91992 6.5625 4.98438 6.60547L6.81055 7.9375Z" fill="#4E4E4E"/>
</svg>
