<svg width="10" height="12" viewBox="0 0 10 12" fill="none" xmlns="http://www.w3.org/2000/svg">
<path d="M8.78125 4.41455H8.09375V3.42627C8.09375 1.70752 6.71875 0.311035 5 0.289551C3.28125 0.289551 1.90625 1.68604 1.90625 3.3833V4.41455H1.21875C0.638672 4.41455 0.1875 4.88721 0.1875 5.4458V10.2583C0.1875 10.8384 0.638672 11.2896 1.21875 11.2896H8.78125C9.33984 11.2896 9.8125 10.8384 9.8125 10.2583V5.4458C9.8125 4.88721 9.33984 4.41455 8.78125 4.41455ZM2.9375 3.3833C2.9375 2.26611 3.86133 1.3208 5 1.3208C6.11719 1.3208 7.0625 2.26611 7.0625 3.3833V4.41455H2.9375V3.3833ZM8.78125 10.2583H1.21875V5.4458H8.78125V10.2583Z" fill="#838383"/>
</svg>
