<svg xmlns="http://www.w3.org/2000/svg" xmlns:xlink="http://www.w3.org/1999/xlink" width="500" height="230" viewBox="0 0 500 230">
  <defs>
    <style>
      .cls-1 {
        fill: #fff;
      }

      .cls-1, .cls-2 {
        fill-rule: evenodd;
      }

      .cls-2 {
        fill: url(#linear-gradient);
      }
    </style>
    <linearGradient id="linear-gradient" x1="326.688" y1="217.578" x2="496.469" y2="217.578" gradientUnits="userSpaceOnUse">
      <stop offset="0" stop-color="#b1742c"/>
      <stop offset="1" stop-color="#f4c077"/>
    </linearGradient>
  </defs>
  <path id="КУХНИ_ПРЕМИУМ" data-name="КУХНИ ПРЕМИУМ" class="cls-1" d="M5.159,179.827V0H53.94S75.219,34.011,75.281,41.733V179.827H58.161V83.935S57.776,64.942,39.634,47.36V179.827H5.159Zm140.244,0V0H96.623S75.344,34.011,75.281,41.733V179.827H92.4V83.935s0.386-18.993,18.528-36.575V179.827H145.4Zm36.241-71.5q0-8.085.729-10.016t3.716-1.93a3.878,3.878,0,0,1,3.753,2.295q1.128,2.294,1.129,9.871,0,6.046-1.02,8.013t-15.52,7.648q-13.554,5.245-16.978,9.179t-3.424,14.787v7.94q0,14.642,6.448,18.976a24.884,24.884,0,0,0,14.172,4.334,17.961,17.961,0,0,0,17.123-10.362v8.614h28.636V129.161q0-23.966-1.53-31.651T209.77,84.544q-7.579-5.281-22.515-5.281-12.46,0-20.257,4.662T156.615,94.669q-2.588,6.083-2.586,17.3v6.484h27.615V108.327Zm9.327,43.27q0,7.284-.838,9t-3.607,1.712q-2.915,0-3.9-2.186t-0.984-9.688a34.37,34.37,0,0,1,1.13-10.052q1.128-3.5,8.2-8.669V151.6Zm41.1-83.48V83.342h-6.34v15.3h6.34v49.1q0,14.423.8,18.32a12.818,12.818,0,0,0,4.081,6.92,15.29,15.29,0,0,0,7.577,3.861,84.865,84.865,0,0,0,14.355.838h11.877V162.086q-7.213,0-8.2-1.093t-0.983-10.635V98.639h7.942v-15.3h-7.942V68.117h-29.51Zm45.467,0V83.342H271.2v15.3h6.339v49.1q0,14.423.8,18.32a12.816,12.816,0,0,0,4.08,6.92,15.293,15.293,0,0,0,7.578,3.861,84.859,84.859,0,0,0,14.354.838h11.877V162.086q-7.214,0-8.2-1.093t-0.984-10.635V98.639h7.943v-15.3h-7.943V68.117h-29.51Zm43.938-8.377v15.37h30.311V59.74H321.472Zm0,21.27v96.664h30.311V81.011H321.472Zm67.181,27.316q0-8.085.728-10.016t3.717-1.93a3.877,3.877,0,0,1,3.752,2.295q1.13,2.294,1.13,9.871,0,6.046-1.021,8.013t-15.52,7.648q-13.553,5.245-16.977,9.179t-3.425,14.787v7.94q0,14.642,6.449,18.976a24.882,24.882,0,0,0,14.172,4.334,17.964,17.964,0,0,0,17.123-10.362v8.614h28.636V129.161q0-23.966-1.53-31.651t-9.108-12.966q-7.579-5.281-22.516-5.281-12.459,0-20.256,4.662T363.624,94.669q-2.588,6.083-2.587,17.3v6.484h27.616V108.327Zm9.327,43.27q0,7.284-.838,9t-3.607,1.712q-2.916,0-3.9-2.186t-0.984-9.688a34.41,34.41,0,0,1,1.129-10.052q1.13-3.5,8.2-8.669V151.6Zm99.678-45.309a53.919,53.919,0,0,0-.765-10.708q-0.765-3.423-4.372-7.43A25.139,25.139,0,0,0,482.175,81.7a48.289,48.289,0,0,0-16.358-2.44A44.827,44.827,0,0,0,448.8,82.249q-7.323,2.988-10.384,8.486t-3.06,17.081a32.355,32.355,0,0,0,2.842,14.1q2.841,5.937,15.811,13.221,15.447,8.6,17.124,10.344,1.6,1.748,1.6,8.668,0,5.027-1.239,6.592t-4.372,1.567a3.815,3.815,0,0,1-3.9-2.331q-0.984-2.331-.984-10.126v-6.119H436.161v4.662q0,12.093,2.987,18.066t10.966,9.469q7.978,3.5,19.2,3.5a41.854,41.854,0,0,0,17.305-3.242,20.338,20.338,0,0,0,10.238-9.251q3.06-6.009,3.06-17.81,0-10.561-4.007-16.1t-16.832-11.8q-9.618-4.736-12.715-7.212t-3.716-4.553a24.831,24.831,0,0,1-.619-6.519,8.1,8.1,0,0,1,1.238-4.917,4.362,4.362,0,0,1,3.716-1.639q3.061,0,3.826,1.785t0.765,8.486V111.9h26.085v-5.609ZM0.136,229.651H10.09l0.047-10.434a4.147,4.147,0,0,1,2.229.571,1.681,1.681,0,0,1,.861,1.468v4.806q0,2.661,1.6,3.589h9.176q-1.345-1.186-1.321-3.985l0.047-3.924q0.047-3.893-6.7-4.426,6.746-.531,6.7-4.365l-0.047-4.228q-0.024-2.814,1.321-3.711H14.831q-1.51.928-1.6,3.589l-0.189,4.807q-0.095,1.962-2.9,2.007l-0.047-10.4H0.136v24.639ZM37.08,205.012l-1.527,15.346L32.4,205.012H23.771l5.218,18.54q0.567,2.054.567,2.084a0.669,0.669,0,0,1-.461.631,8.141,8.141,0,0,1-2.422.205H26.083v3.179h5.8a25.18,25.18,0,0,0,6.91-.669,4.373,4.373,0,0,0,2.83-2.228A23.135,23.135,0,0,0,43,221.332l2.7-16.32H37.08Zm22.414,0.015-2.123,6.723q-0.393-1.524-1.017-3.332-0.773-2.375-1.035-3.391h-9.6l3.609,10.89-3.609,13.734H55.39l0.934-4.015q0.672-2.614,1.047-4.958a57.385,57.385,0,0,0,3.019,8.973h9.2l-5.26-13.734,3.491-10.89H59.494Zm24.4,0v8.806H80.924v-8.806h-9.93v24.624h9.93V219.309H83.9v10.342h9.93V205.027H83.9Zm36.089-.015h-8.3l-5.567,11.118V205.012h-8.3v24.639h8.7l5.166-11.209v11.209h8.3V205.012Zm35.334,0H132.463v24.639h9.954V209.94h2.948v19.711h9.954V205.012Zm3.963,24.639h9.93v-9.916h2.665a19.679,19.679,0,0,0,5.272-.578,4.9,4.9,0,0,0,2.772-1.658,6.112,6.112,0,0,0,.755-3.437v-2.145a11,11,0,0,0-.39-3.414,3.864,3.864,0,0,0-1.486-1.879,8.488,8.488,0,0,0-3.278-1.186,35.929,35.929,0,0,0-6.239-.411h-10v24.624ZM171.76,209.62a1.809,1.809,0,0,1,.613,1.643v2.023a2.3,2.3,0,0,1-.531,1.8,3.09,3.09,0,0,1-1.9.434q-0.306,0-.731-0.016V209.24A5.562,5.562,0,0,1,171.76,209.62Zm11.77,20.031h17.219v-4.928H193.46v-5.414h6.2v-4.685h-6.2v-4.669h6.628v-4.928H183.53v24.624Zm37.793-24.624-2.282,11.5-1.41-6.263q-0.607-3.014-1.179-5.235H203.6v24.624h8.68l0.012-16.243,3.644,16.243H222.1l3.456-16.624,0.012,16.624h8.68V205.027h-12.92Zm39.079-.015h-8.3l-5.567,11.118V205.012h-8.3v24.639h8.7l5.166-11.209v11.209h8.3V205.012Zm15.007,0-1.527,15.346-3.155-15.346H262.1l5.218,18.54q0.567,2.054.567,2.084a0.669,0.669,0,0,1-.461.631,8.139,8.139,0,0,1-2.422.205h-0.59v3.179h5.8a25.186,25.186,0,0,0,6.911-.669,4.373,4.373,0,0,0,2.83-2.228,23.137,23.137,0,0,0,1.372-5.422l2.7-16.32h-8.622Zm28.329,0.015-2.282,11.5-1.41-6.263q-0.607-3.014-1.179-5.235H286.018v24.624h8.68l0.012-16.243,3.644,16.243h6.157l3.455-16.624,0.012,16.624h8.68V205.027h-12.92Z"/>
  <path id="Прямоугольник_1" data-name="Прямоугольник 1" class="cls-2" d="M326.689,205.148H496.482V230H326.689V205.148Z"/>
</svg>
