<svg width="9" height="12" viewBox="0 0 9 12" fill="none" xmlns="http://www.w3.org/2000/svg">
<path d="M4.125 0.375C1.82617 0.375 0 2.24414 0 4.5C0 6.04688 0.494141 6.51953 3.24414 10.9023C3.65234 11.5469 4.57617 11.5469 4.98438 10.9023C7.73438 6.51953 8.25 6.04688 8.25 4.5C8.25 2.22266 6.38086 0.375 4.125 0.375ZM4.125 10.3438C1.375 5.96094 1.03125 5.68164 1.03125 4.5C1.03125 2.80273 2.40625 1.40625 4.125 1.40625C5.82227 1.40625 7.21875 2.80273 7.21875 4.5C7.21875 5.68164 6.875 5.91797 4.125 10.3438Z" fill="#4E4E4E"/>
</svg>
