<svg width="55" height="9" viewBox="0 0 55 9" fill="none" xmlns="http://www.w3.org/2000/svg">
<path d="M4.44445 0L5.78199 2.60348L8.67137 3.07104L6.60863 5.14763L7.05683 8.04008L4.44445 6.72L1.83207 8.04008L2.28026 5.14763L0.217527 3.07104L3.10691 2.60348L4.44445 0Z" fill="#FFD886"/>
<path d="M15.5555 0L16.8931 2.60348L19.7824 3.07104L17.7197 5.14763L18.1679 8.04008L15.5555 6.72L12.9432 8.04008L13.3913 5.14763L11.3286 3.07104L14.218 2.60348L15.5555 0Z" fill="#FFD886"/>
<path d="M27.2223 0L28.5598 2.60348L31.4492 3.07104L29.3865 5.14763L29.8347 8.04008L27.2223 6.72L24.6099 8.04008L25.0581 5.14763L22.9954 3.07104L25.8847 2.60348L27.2223 0Z" fill="#FFD886"/>
<path d="M38.8889 0L40.2264 2.60348L43.1158 3.07104L41.0531 5.14763L41.5013 8.04008L38.8889 6.72L36.2765 8.04008L36.7247 5.14763L34.662 3.07104L37.5514 2.60348L38.8889 0Z" fill="#FFD886"/>
<path d="M50.5555 0L51.8931 2.60348L54.7824 3.07104L52.7197 5.14763L53.1679 8.04008L50.5555 6.72L47.9432 8.04008L48.3913 5.14763L46.3286 3.07104L49.218 2.60348L50.5555 0Z" fill="#FFD886"/>
</svg>
