<svg width="154" height="154" viewBox="0 0 154 154" fill="none" xmlns="http://www.w3.org/2000/svg">
<circle cx="77.5" cy="76.5" r="33" stroke="white" stroke-opacity="0.06"/>
<g filter="url(#filter0_f)">
<circle cx="77" cy="77" r="17" fill="#FFD886"/>
</g>
<path d="M89.75 75.75C92.1562 75.75 94.125 73.8359 94.125 71.375C94.125 68.9688 92.1562 67 89.75 67C87.2891 67 85.375 68.9688 85.375 71.375C85.375 73.8359 87.2891 75.75 89.75 75.75ZM89.75 69.625C90.6797 69.625 91.5 70.4453 91.5 71.375C91.5 72.3594 90.6797 73.125 89.75 73.125C88.7656 73.125 88 72.3594 88 71.375C88 70.4453 88.7656 69.625 89.75 69.625ZM65.25 75.75C67.6562 75.75 69.625 73.8359 69.625 71.375C69.625 68.9688 67.6562 67 65.25 67C62.7891 67 60.875 68.9688 60.875 71.375C60.875 73.8359 62.7891 75.75 65.25 75.75ZM65.25 69.625C66.1797 69.625 67 70.4453 67 71.375C67 72.3594 66.1797 73.125 65.25 73.125C64.2656 73.125 63.5 72.3594 63.5 71.375C63.5 70.4453 64.2656 69.625 65.25 69.625ZM86.9062 81.1641C85.375 78.9766 82.4766 78.1016 79.9062 78.9219C79.1406 79.1406 78.3203 79.25 77.4453 79.25C76.625 79.25 75.8047 79.1406 75.0391 78.9219C72.4688 78.1016 69.5156 78.9219 68.0391 81.1641C67.3828 82.2031 66.9453 83.4062 66.9453 84.7188V87.125C66.9453 88.6016 68.1484 89.75 69.5703 89.75H85.3203C86.7969 89.75 87.9453 88.6016 87.9453 87.125V84.7188C88 83.4062 87.5625 82.2031 86.9062 81.1641ZM85.375 87.125H69.625V84.7188C69.625 82.6953 71.2109 81.0547 73.1797 81C74.5469 81.6016 76.0234 81.875 77.5 81.875C78.9219 81.875 80.3984 81.6016 81.7656 81C83.7344 81.0547 85.375 82.6953 85.375 84.7188V87.125ZM90.4062 77.5H89.0938C88.1094 77.5 87.2344 77.8281 86.5234 78.3203C87.2344 78.8672 87.8906 79.5234 88.3828 80.2891C88.6016 80.2344 88.8203 80.125 89.0391 80.125H90.3516C91.4453 80.125 92.3203 81.0547 92.3203 82.0938C92.3203 82.8594 92.9219 83.4062 93.6328 83.4062C94.3984 83.4062 94.9453 82.8594 94.9453 82.0938C95 79.5781 92.9219 77.5 90.4062 77.5ZM77.5 77.5C80.8359 77.5 83.625 74.7656 83.625 71.375C83.625 68.0391 80.8359 65.25 77.5 65.25C74.1094 65.25 71.375 68.0391 71.375 71.375C71.375 74.7656 74.1094 77.5 77.5 77.5ZM77.5 67.875C79.4141 67.875 81 69.4609 81 71.375C81 73.3438 79.4141 74.875 77.5 74.875C75.5312 74.875 74 73.3438 74 71.375C74 69.4609 75.5312 67.875 77.5 67.875ZM68.4219 78.3203C67.7109 77.8281 66.8359 77.5 65.9062 77.5H64.5938C62.0234 77.5 60 79.5781 60 82.0938C60 82.8594 60.5469 83.4062 61.3125 83.4062C62.0234 83.4062 62.625 82.8594 62.625 82.0938C62.625 81.0547 63.5 80.125 64.5938 80.125H65.9062C66.125 80.125 66.3438 80.2344 66.5625 80.2891C67.0547 79.5234 67.7109 78.8672 68.4219 78.3203Z" fill="#FFD886"/>
<defs>
<filter id="filter0_f" x="0" y="0" width="154" height="154" filterUnits="userSpaceOnUse" color-interpolation-filters="sRGB">
<feFlood flood-opacity="0" result="BackgroundImageFix"/>
<feBlend mode="normal" in="SourceGraphic" in2="BackgroundImageFix" result="shape"/>
<feGaussianBlur stdDeviation="30" result="effect1_foregroundBlur"/>
</filter>
</defs>
</svg>
