<svg width="26" height="35" viewBox="0 0 26 35" fill="none" xmlns="http://www.w3.org/2000/svg">
<path d="M24.5039 6.75781L18.9922 1.17969C18.3945 0.582031 17.5312 0.25 16.7344 0.25H3.1875C1.39453 0.25 0 1.71094 0 3.4375V31.0625C0 32.8555 1.39453 34.25 3.1875 34.25H22.3125C24.0391 34.25 25.5 32.8555 25.5 31.0625V9.01562C25.5 8.21875 25.1016 7.35547 24.5039 6.75781ZM22.0469 8.75H17V3.70312L22.0469 8.75ZM3.1875 31.0625V3.4375H13.8125V10.3438C13.8125 11.2734 14.4766 11.9375 15.4062 11.9375H22.3125V31.0625H3.1875ZM14.0117 15.8555C13.8789 15.7227 13.6133 15.7227 13.4805 15.8555L5.91016 23.4258L5.57812 26.6133C5.51172 27.0781 5.84375 27.4102 6.30859 27.3438L9.49609 27.0117L17.0664 19.4414C17.1992 19.3086 17.1992 19.043 17.0664 18.9102L14.0117 15.8555ZM19.5234 16.9844C20.0547 16.4531 20.0547 15.6562 19.5234 15.125L17.7969 13.3984C17.2656 12.8672 16.4688 12.8672 15.9375 13.3984L14.6094 14.7266C14.4766 14.8594 14.4766 15.0586 14.6094 15.1914L17.7305 18.3125C17.8633 18.4453 18.0625 18.4453 18.1953 18.3125L19.5234 16.9844Z" fill="#FFD886"/>
</svg>
