<svg width="12" height="12" viewBox="0 0 12 12" fill="none" xmlns="http://www.w3.org/2000/svg">
<path d="M0.773438 0.501953L2.79297 0.0507812C3.26562 -0.0566406 3.73828 0.179688 3.91016 0.609375L4.85547 2.80078C5.02734 3.1875 4.91992 3.66016 4.57617 3.93945L3.7168 4.64844C4.31836 5.76562 5.26367 6.68945 6.38086 7.3125L7.08984 6.45312C7.36914 6.10938 7.8418 6.00195 8.22852 6.17383L10.4199 7.09766C10.8496 7.29102 11.0859 7.76367 10.9785 8.23633L10.5273 10.2559C10.4199 10.707 10.0117 11.0078 9.56055 11.0078C4.29688 11.0078 0 6.75391 0 1.46875C0 1.01758 0.322266 0.609375 0.773438 0.501953ZM9.51758 9.97656L9.96875 8.04297L7.86328 7.14062L6.66016 8.60156C4.5332 7.5918 3.4375 6.49609 2.42773 4.36914L3.88867 3.16602L2.98633 1.06055L1.03125 1.51172C1.05273 6.17383 4.85547 9.95508 9.51758 9.97656Z" fill="white" fill-opacity="0.17"/>
</svg>
