<svg width="34" height="35" viewBox="0 0 34 35" fill="none" xmlns="http://www.w3.org/2000/svg">
<path d="M33.7344 31.3945L25.6992 23.3594C25.5 23.2266 25.3008 23.0938 25.1016 23.0938H24.2383C26.2969 20.7031 27.625 17.5156 27.625 14.0625C27.625 6.49219 21.3828 0.25 13.8125 0.25C6.17578 0.25 0 6.49219 0 14.0625C0 21.6992 6.17578 27.875 13.8125 27.875C17.2656 27.875 20.3867 26.6133 22.8438 24.5547V25.418C22.8438 25.6172 22.9102 25.8164 23.043 26.0156L31.0781 34.0508C31.4102 34.3828 31.9414 34.3828 32.207 34.0508L33.7344 32.5234C34.0664 32.2578 34.0664 31.7266 33.7344 31.3945ZM13.8125 24.6875C7.90234 24.6875 3.1875 19.9727 3.1875 14.0625C3.1875 8.21875 7.90234 3.4375 13.8125 3.4375C19.6562 3.4375 24.4375 8.21875 24.4375 14.0625C24.4375 19.9727 19.6562 24.6875 13.8125 24.6875Z" fill="#FFD886"/>
</svg>
