<svg width="32" height="35" viewBox="0 0 32 35" fill="none" xmlns="http://www.w3.org/2000/svg">
<path d="M14.7383 34.0508C15.5352 34.3828 16.3984 34.3828 17.1953 34.0508C22.9062 31.6602 31.9375 23.4922 31.9375 8.75C31.9375 7.48828 31.1406 6.35938 29.9453 5.82812L17.1953 0.515625C16.7969 0.382812 16.3984 0.316406 16 0.316406C15.5352 0.316406 15.1367 0.382812 14.7383 0.515625L1.98828 5.82812C0.792969 6.35938 0.0625 7.48828 0.0625 8.75C0.0625 21.9648 7.63281 31.0625 14.7383 34.0508ZM16 3.4375L28.75 8.75C28.75 20.3047 22.1758 28.4727 16 31.0625C9.49219 28.4062 3.25 20.0391 3.25 8.75L16 3.4375Z" fill="#FFD886"/>
</svg>
