<svg width="19" height="14" viewBox="0 0 19 14" fill="none" xmlns="http://www.w3.org/2000/svg">
<path d="M3.14258 6.52539C3.02539 6.20312 2.9375 5.88086 2.9375 5.5C2.9375 3.94727 4.19727 2.6875 5.75 2.6875C6.33594 2.6875 6.89258 2.86328 7.33203 3.18555C8.12305 1.7793 9.64648 0.8125 11.375 0.8125C13.9824 0.8125 16.0625 2.92188 16.0625 5.5C16.0625 5.58789 16.0625 5.67578 16.0625 5.76367C17.7031 6.32031 18.875 7.90234 18.875 9.71875C18.875 12.0625 17 13.9375 14.6562 13.9375H3.875C1.82422 13.9375 0.125 12.2676 0.125 10.1875C0.125 8.40039 1.41406 6.87695 3.14258 6.52539ZM7.24414 8.40039L7.56641 8.72266C7.83008 8.98633 8.29883 8.98633 8.5625 8.69336L9.5 7.69727V11.3594C9.5 11.7695 9.82227 12.0625 10.2031 12.0625H10.6719C11.082 12.0625 11.375 11.7695 11.375 11.3594V7.69727L12.3418 8.69336C12.6055 8.98633 13.0742 8.98633 13.3379 8.72266L13.6602 8.40039C13.9531 8.10742 13.9531 7.66797 13.6602 7.4043L10.9355 4.67969C10.6719 4.41602 10.2324 4.41602 9.96875 4.67969L7.24414 7.4043C6.95117 7.66797 6.95117 8.10742 7.24414 8.40039Z" fill="#969696"/>
</svg>
