

<svg width="0" height="0" class="hidden">
  <symbol  xmlns="http://www.w3.org/2000/svg" viewBox="0 0 27 36" id="file-edit">
    <path d="M25.225 7.074L19.55 1.332a3.376 3.376 0 00-2.324-.957H3.28A3.282 3.282 0 000 3.656v28.438c0 1.846 1.436 3.281 3.281 3.281H22.97a3.282 3.282 0 003.281-3.281V9.398c0-.82-.41-1.709-1.025-2.324zM23.72 8.646c.136.137.205.342.273.479H17.5V2.631c.137.068.342.137.479.273l5.742 5.742zm-.752 24.541H3.28a1.08 1.08 0 01-1.094-1.093V3.656c0-.547.479-1.094 1.094-1.094h12.031v7.11c0 .957.684 1.64 1.641 1.64h7.11v20.782c0 .615-.547 1.093-1.094 1.093zM14.97 17.328a.33.33 0 00-.479 0l-7.656 7.656-.274 2.051a.587.587 0 00.684.684l2.05-.274 7.657-7.656a.33.33 0 000-.479l-1.982-1.982zm4.375.069c.41-.41.41-1.094 0-1.436l-1.026-1.026c-.341-.41-1.025-.41-1.435 0L15.79 16.03a.33.33 0 000 .479l1.982 1.982a.33.33 0 00.479 0l1.094-1.093z"></path>
  </symbol>
  <symbol xmlns="http://www.w3.org/2000/svg" viewBox="0 0 40 35" id="gem">
    <path d="M31.746.25H8.438c-.266 0-.532.2-.665.398L1.066 11.473c-.132.265-.132.664.067.93l18.327 21.58a.815.815 0 001.262 0L39.05 12.402c.199-.265.199-.664.066-.93L32.477.649c-.2-.199-.465-.398-.73-.398zm-.863 2.39l4.914 8.235h-5.512L26.5 2.641h4.383zm-6.973 0l3.719 8.235H12.555l3.785-8.234h7.57zm-14.61 0h4.384l-3.786 8.235H4.387L9.3 2.641zM5.05 13h4.848l5.446 12.75L5.05 13zm7.438 0h15.207l-7.57 17.531L12.488 13zm12.418 12.75L30.286 13h4.847L24.906 25.75z" ></path>
  </symbol>
  <symbol xmlns="http://www.w3.org/2000/svg" viewBox="0 0 35 34" id="gift">
    <path d="M31.719 9.219h-2.735c.684-.889 1.094-1.983 1.094-3.281 0-3.008-2.324-5.47-5.127-5.47-2.87 0-4.58 1.778-7.451 6.563C14.56 2.246 12.852.47 9.98.47c-2.802 0-5.058 2.46-5.058 5.468 0 1.3.342 2.393 1.025 3.282H3.281A3.282 3.282 0 000 12.5v6.563a1.08 1.08 0 001.094 1.093h1.093V30c0 1.846 1.436 3.281 3.282 3.281H29.53A3.282 3.282 0 0032.813 30v-9.844h1.093c.547 0 1.094-.478 1.094-1.093V12.5c0-1.777-1.504-3.281-3.281-3.281zm-12.852-.205c3.35-5.674 4.512-6.358 6.084-6.358s2.94 1.504 2.94 3.281c0 1.846-1.368 3.282-2.94 3.282h-6.22l.136-.205zM9.98 2.656c1.573 0 2.735.684 6.084 6.358l.137.205h-6.22c-1.573 0-2.94-1.436-2.94-3.281.068-1.778 1.367-3.282 2.94-3.282zm3.145 28.438H5.469A1.08 1.08 0 014.375 30v-9.844h8.75v10.938zm0-13.125H2.187V12.5c0-.547.479-1.094 1.094-1.094h9.844v6.563zm6.563 13.125h-4.375V11.406h4.374v19.688zM30.624 30c0 .615-.547 1.094-1.094 1.094h-7.656V20.156h8.75V30zm2.188-12.031H21.874v-6.563h9.844c.547 0 1.093.547 1.093 1.094v5.469z"></path>
  </symbol>
  <symbol  xmlns="http://www.w3.org/2000/svg" viewBox="0 0 41 36" id="home">
    <path d="M40.266 15.969L35.5 12.063V5.968a.504.504 0 00-.469-.469H33.47c-.313 0-.469.234-.469.469v4.062L22.062 1.125A2.388 2.388 0 0020.5.578c-.625 0-1.172.156-1.64.547L.733 15.969c-.156.078-.234.234-.234.469 0 .156 0 .312.078.39l.781.938a.71.71 0 00.547.234c.157 0 .235 0 .39-.156L5.5 15.266V34.25c0 .703.547 1.25 1.25 1.25h10c.625 0 1.25-.547 1.25-1.25v-10h5v10c0 .703.547 1.25 1.25 1.25h10c.625 0 1.25-.547 1.25-1.25V15.266l3.125 2.578c.156.156.234.156.39.156a.71.71 0 00.547-.234l.782-.938c.078-.078.078-.234.078-.39 0-.235-.078-.391-.156-.47zM32.922 33l-7.5.078V23c0-.625-.547-1.25-1.172-1.25h-7.578c-.625 0-1.25.547-1.25 1.25v10H8V13.234L20.5 3 33 13.234 32.922 33z"></path>
    <defs>
      <linearGradient id="paint0_linear" x1="20.5" y1="-12" x2="20.5" y2="48" gradientUnits="userSpaceOnUse">
        <stop stop-color="#FFE4AA"></stop>
        <stop offset="1" stop-color="#FFD886"></stop>
      </linearGradient>
    </defs>
  </symbol>
  <symbol  xmlns="http://www.w3.org/2000/svg" viewBox="0 0 69 1" id="line">
    <path opacity=".07" stroke="#fff" stroke-width=".5" d="M0 .25h68.007"></path>
  </symbol>
  <symbol  xmlns="http://www.w3.org/2000/svg" viewBox="0 0 39 39" id="square">
    <path d="M15.918 0H1.91A1.91 1.91 0 000 1.91v14.008c0 1.075.836 1.91 1.91 1.91h14.008a1.91 1.91 0 001.91-1.91V1.91c0-1.034-.875-1.91-1.91-1.91zm-.238 15.918H2.149c-.16 0-.239-.08-.239-.238V2.149c0-.12.08-.239.239-.239h13.53c.12 0 .24.12.24.239v13.53c0 .16-.12.24-.24.24zm.238 5.253H1.91A1.91 1.91 0 000 23.081V37.09C0 38.164.836 39 1.91 39h14.008a1.91 1.91 0 001.91-1.91V23.082c0-1.035-.875-1.91-1.91-1.91zM15.68 37.09H2.149c-.16 0-.239-.08-.239-.239v-13.53c0-.12.08-.24.239-.24h13.53c.12 0 .24.12.24.24v13.53c0 .16-.12.239-.24.239zM37.09 0H23.08a1.91 1.91 0 00-1.91 1.91v14.008c0 1.075.836 1.91 1.91 1.91h14.01a1.91 1.91 0 001.91-1.91V1.91C39 .876 38.124 0 37.09 0zm-.24 15.918H23.32c-.159 0-.239-.08-.239-.238V2.149c0-.12.08-.239.24-.239h13.53c.12 0 .239.12.239.239v13.53c0 .16-.12.24-.24.24zm.24 5.253H23.08a1.91 1.91 0 00-1.91 1.91V37.09c0 1.074.836 1.91 1.91 1.91h14.01A1.91 1.91 0 0039 37.09V23.082c0-1.035-.876-1.91-1.91-1.91zm-.24 15.919H23.32c-.159 0-.239-.08-.239-.239v-13.53c0-.12.08-.24.24-.24h13.53c.12 0 .239.12.239.24v13.53c0 .16-.12.239-.24.239z" ></path>
  </symbol>
  <symbol  xmlns="http://www.w3.org/2000/svg" viewBox="0 0 36 36" id="tools">
    <path d="M35.316 27.035L26.84 18.49c-1.094-1.025-2.461-1.572-3.897-1.572-1.025 0-2.119.273-3.008.889l-5.81-5.81v-5.06L5.375.375 1 4.75l6.563 8.75h4.99l5.81 5.879a5.51 5.51 0 00.752 6.904l8.477 8.477c.41.41 1.025.683 1.572.683.547 0 1.094-.273 1.504-.683l4.648-4.649a2.108 2.108 0 000-3.076zm-23.379-15.79v.068h-3.28L3.87 4.955l1.71-1.64 6.356 4.716v3.213zm17.227 21.943L20.62 24.71a3.255 3.255 0 01-.957-2.324c0-.889.342-1.71.957-2.325a3.256 3.256 0 012.324-.957c.889 0 1.71.342 2.325.957l8.544 8.545-4.648 4.58zM5.375 29.905A1.08 1.08 0 006.469 31c.547 0 1.093-.479 1.093-1.094 0-.547-.546-1.093-1.093-1.093-.615 0-1.094.546-1.094 1.093zm14.492-24.95C21.44 3.45 23.49 2.561 25.61 2.561c.479 0 .957.069 1.436.137l-4.717 4.785.889 5.674 5.674.889 4.785-4.717a8.448 8.448 0 01-2.256 7.178 6.963 6.963 0 01-2.05 1.435l1.571 1.641c.752-.41 1.368-.957 1.983-1.572 2.598-2.598 3.623-6.221 2.734-9.776-.136-.683-.683-1.162-1.299-1.367-.683-.137-1.367 0-1.845.479l-4.375 4.375-3.008-.479-.479-3.008 4.375-4.375c.41-.478.616-1.162.479-1.845-.205-.616-.752-1.162-1.367-1.3-3.555-.888-7.178.138-9.776 2.735a9.804 9.804 0 00-2.05 3.008v4.648l1.503 1.504c-.683-2.802.069-5.674 2.051-7.656zM8.314 32.366c-1.162 1.094-3.144 1.094-4.306 0-1.162-1.23-1.162-3.144 0-4.306l9.98-9.98-1.504-1.505-9.98 9.98c-2.05 1.983-2.05 5.333 0 7.315.957 1.026 2.256 1.504 3.623 1.504 1.436 0 2.734-.478 3.691-1.504l6.973-6.973c-.479-.615-.82-1.298-1.094-1.982l-7.383 7.451z" ></path>
  </symbol>
  <symbol  xmlns="http://www.w3.org/2000/svg" viewBox="0 0 44 32" id="users">
    <path d="M37.188 13.688a5.441 5.441 0 005.468-5.47c0-3.007-2.46-5.468-5.468-5.468a5.441 5.441 0 00-5.47 5.469c0 3.076 2.393 5.469 5.47 5.469zm0-8.75c1.777 0 3.28 1.503 3.28 3.28a3.282 3.282 0 01-3.28 3.282c-1.846 0-3.282-1.435-3.282-3.281a3.282 3.282 0 013.282-3.281zM21.874 15.874c4.17 0 7.656-3.418 7.656-7.656 0-4.17-3.486-7.656-7.656-7.656-4.238 0-7.656 3.486-7.656 7.656a7.644 7.644 0 007.656 7.656zm0-13.125c3.008 0 5.469 2.46 5.469 5.469a5.441 5.441 0 01-5.469 5.469c-3.076 0-5.469-2.393-5.469-5.47a5.441 5.441 0 015.469-5.468zm16.68 13.125H35.82c-1.093 0-2.05.342-2.87.889.683.478 1.23.957 1.777 1.572.341-.137.683-.273 1.093-.273h2.735c1.64 0 3.008 1.503 3.008 3.28a1.08 1.08 0 001.093 1.095c.547 0 1.094-.479 1.094-1.094 0-3.008-2.393-5.469-5.195-5.469zM6.563 13.687A5.441 5.441 0 0012.03 8.22c0-3.008-2.46-5.469-5.469-5.469A5.441 5.441 0 001.093 8.22c0 3.076 2.392 5.469 5.468 5.469zm0-8.75c1.777 0 3.28 1.504 3.28 3.282a3.282 3.282 0 01-3.28 3.281c-1.846 0-3.282-1.435-3.282-3.281a3.282 3.282 0 013.281-3.281zm20.78 12.305c-2.323 0-2.87.82-5.468.82-2.666 0-3.213-.82-5.537-.82-2.461 0-4.854 1.162-6.29 3.213a8.251 8.251 0 00-1.298 4.443v3.008c0 1.846 1.435 3.282 3.281 3.282H31.72A3.282 3.282 0 0035 27.905v-3.008c0-1.64-.547-3.144-1.367-4.443-1.436-2.05-3.828-3.213-6.29-3.213zm5.47 10.664c0 .616-.547 1.094-1.094 1.094H12.03a1.08 1.08 0 01-1.094-1.094v-3.008c0-1.162.274-2.255.958-3.212.888-1.368 2.597-2.256 4.443-2.256 1.914 0 2.598.82 5.537.82 2.94 0 3.555-.82 5.469-.82 1.845 0 3.554.888 4.443 2.256.684.957.957 2.05.957 3.212v3.008h.069zm-22.08-11.142c-.82-.547-1.778-.889-2.803-.889H5.195c-2.87 0-5.195 2.46-5.195 5.469a1.08 1.08 0 001.094 1.093c.547 0 1.093-.478 1.093-1.093 0-1.778 1.3-3.282 3.008-3.282H7.93c.341 0 .683.137 1.025.274a9.762 9.762 0 011.777-1.572z" ></path>
  </symbol>
  <symbol  xmlns="http://www.w3.org/2000/svg" viewBox="0 0 41 32" id="comments">
    <path d="M39.897 28.59c0-.069-1.504-1.71-2.53-3.76 1.846-1.846 3.008-4.17 3.008-6.767 0-5.47-5.264-9.981-12.1-10.733C26.156 3.365 21.098.562 15.22.562 7.357.563 1 5.484 1 11.5c0 2.53 1.094 4.854 3.008 6.768-1.094 2.05-2.598 3.691-2.598 3.76-.41.41-.547 1.093-.342 1.708.274.547.82.957 1.504.957 3.623 0 6.563-1.435 8.545-2.666.615.137 1.23.205 1.914.342 2.12 3.897 7.178 6.7 13.125 6.7 1.367 0 2.735-.206 4.034-.48 1.982 1.231 4.921 2.667 8.613 2.667.615 0 1.162-.41 1.435-.957.205-.615.137-1.299-.341-1.71zm-28.301-8.75l-.889-.205-.82.547c-1.367.888-3.418 1.914-5.948 2.187.547-.752 1.368-1.846 1.983-3.144l.752-1.436-1.162-1.094c-1.094-1.093-2.324-2.802-2.324-5.195 0-4.785 5.4-8.75 12.03-8.75 6.632 0 12.032 3.965 12.032 8.75 0 4.854-5.4 8.75-12.031 8.75a15.91 15.91 0 01-3.623-.41zm19.824 6.904l-.82-.547-.89.274c-1.161.273-2.392.41-3.554.41-4.511 0-8.34-1.777-10.459-4.444 7.588-.205 13.74-4.99 13.74-10.937 0-.615-.136-1.23-.273-1.846 5.195.957 9.023 4.375 9.023 8.409 0 2.392-1.298 4.101-2.392 5.195L34.7 24.352l.684 1.435c.615 1.299 1.435 2.393 1.982 3.145-2.53-.274-4.58-1.3-5.947-2.188z"></path>
  </symbol>
</svg>
